<svg fill="#1d324a" height="200px" width="200px" version="1.1" id="Layer_1" xmlns="http://www.w3.org/2000/svg" xmlns:xlink="http://www.w3.org/1999/xlink" viewBox="0 0 512.001 512.001" xml:space="preserve"><g id="SVGRepo_bgCarrier" stroke-width="0"></g><g id="SVGRepo_tracerCarrier" stroke-linecap="round" stroke-linejoin="round"></g><g id="SVGRepo_iconCarrier"> <g> <g> <path d="M93.435,0C68.351,0,48.017,20.335,48.017,45.419c0,25.17,20.455,45.419,45.419,45.419 c24.965,0,45.419-20.249,45.419-45.419C138.854,20.335,118.52,0,93.435,0z"></path> </g> </g> <g> <g> <path d="M379.126,198.251c-3.068-13.136-61.188-10.871-131.225,4.818L228.16,189.03c5.326-4.038,8.781-10.414,8.781-17.613 c0-12.214-9.901-22.115-22.115-22.115h-47.004v44.229h28.492l27.794,19.879l-14.142,5.669c-2.411-1.509-5.162-2.572-8.154-3.052 l-74.851-11.99l-24.68-54.145l32.716,40.221l16.239,2.601v-57.595c0-16.945-13.736-30.682-30.682-30.682H65.84 c-16.945,0-30.682,13.736-30.682,30.682v157.659l9.93,80.094L2.013,477.424c-5.267,12.783,0.827,27.415,13.609,32.682 c12.787,5.268,27.417-0.831,32.682-13.609l45.583-110.636c1.643-3.989,2.228-8.335,1.698-12.616l-7.833-63.182h19.443 l7.049,53.971L89.309,481.774c-2.865,13.526,5.778,26.812,19.304,29.677c13.528,2.865,26.812-5.78,29.677-19.304l25.82-121.926 c0.587-2.77,0.699-5.62,0.332-8.428l-12.291-94.12l-46.098-7.383c-17.719-2.841-27.401-17.285-28.828-24.44l-12.524-62.732 l27.254,59.791c3.014,6.611,9.152,11.375,16.476,12.55l86.453,13.848c12.899,2.067,24.605-7.52,25.347-20.405 c19.711-7.903,12.505-5.013,23.829-9.553c64.683,31.906,121.019,47.902,127.105,35.811l-88.274-44.432L379.126,198.251z"></path> </g> </g> <g> <g> <path d="M493.765,255.42h-90.927c-10.005,0-18.116,8.11-18.116,18.116v23.902H275.678c-10.005,0-18.116,8.11-18.116,18.116v98.668 c0,10.005,8.11,18.116,18.116,18.116h34.971l16.599,16.599l-16.674-1.839c-1.861-0.205-3.537,1.138-3.742,2.999l-1.196,10.844 c-0.205,1.862,1.137,3.536,2.999,3.742l38.619,4.261l20.843,20.843h-80.125c-6.135,0-11.108,4.973-11.108,11.108 s4.973,11.108,11.108,11.108h193.503c6.135,0,11.108-4.973,11.108-11.108s-4.973-11.108-11.108-11.108h-80.125l57.448-57.448 h34.97c10.005,0,18.116-8.11,18.116-18.116c0-49.968,0-86.744,0-140.686C511.879,263.531,503.769,255.42,493.765,255.42z M384.722,474.991l-42.654-42.654h85.308L384.722,474.991z"></path> </g> </g> </g></svg>